<mxfile host="app.diagrams.net" modified="2021-04-19T09:24:27.107Z" agent="5.0 (Windows NT 10.0; Win64; x64) AppleWebKit/537.36 (KHTML, like Gecko) Chrome/90.0.4430.72 Safari/537.36" etag="xvk0gVJ3ckmm4Ym5zEhl" version="14.6.1" type="github">
  <diagram id="C5RBs43oDa-KdzZeNtuy" name="Page-1">
    <mxGraphModel dx="1266" dy="1443" grid="1" gridSize="10" guides="1" tooltips="1" connect="1" arrows="1" fold="1" page="1" pageScale="1" pageWidth="827" pageHeight="1169" math="0" shadow="0">
      <root>
        <mxCell id="WIyWlLk6GJQsqaUBKTNV-0" />
        <mxCell id="WIyWlLk6GJQsqaUBKTNV-1" parent="WIyWlLk6GJQsqaUBKTNV-0" />
        <mxCell id="px5DFVO-k1kZFDJR76U2-18" style="edgeStyle=orthogonalEdgeStyle;rounded=0;orthogonalLoop=1;jettySize=auto;html=1;endArrow=block;endFill=0;entryX=0.5;entryY=0;entryDx=0;entryDy=0;entryPerimeter=0;" edge="1" parent="WIyWlLk6GJQsqaUBKTNV-1" source="px5DFVO-k1kZFDJR76U2-19" target="px5DFVO-k1kZFDJR76U2-21">
          <mxGeometry relative="1" as="geometry">
            <mxPoint x="276.25" y="-980" as="targetPoint" />
          </mxGeometry>
        </mxCell>
        <mxCell id="px5DFVO-k1kZFDJR76U2-19" value="Vue构造函数" style="strokeWidth=2;html=1;shape=mxgraph.flowchart.start_2;whiteSpace=wrap;" vertex="1" parent="WIyWlLk6GJQsqaUBKTNV-1">
          <mxGeometry x="221.25" y="-1120" width="110" height="70" as="geometry" />
        </mxCell>
        <mxCell id="px5DFVO-k1kZFDJR76U2-20" style="edgeStyle=orthogonalEdgeStyle;rounded=0;orthogonalLoop=1;jettySize=auto;html=1;exitX=1;exitY=0.5;exitDx=0;exitDy=0;exitPerimeter=0;endArrow=block;endFill=0;" edge="1" parent="WIyWlLk6GJQsqaUBKTNV-1" source="px5DFVO-k1kZFDJR76U2-21">
          <mxGeometry relative="1" as="geometry">
            <mxPoint x="451.25" y="-975" as="targetPoint" />
          </mxGeometry>
        </mxCell>
        <mxCell id="px5DFVO-k1kZFDJR76U2-23" style="edgeStyle=orthogonalEdgeStyle;rounded=0;orthogonalLoop=1;jettySize=auto;html=1;exitX=0.5;exitY=1;exitDx=0;exitDy=0;exitPerimeter=0;endArrow=block;endFill=0;" edge="1" parent="WIyWlLk6GJQsqaUBKTNV-1" source="px5DFVO-k1kZFDJR76U2-21">
          <mxGeometry relative="1" as="geometry">
            <mxPoint x="276" y="-850" as="targetPoint" />
          </mxGeometry>
        </mxCell>
        <mxCell id="px5DFVO-k1kZFDJR76U2-21" value="非生产环境且 this不是Vue函数的实例" style="strokeWidth=1;html=1;shape=mxgraph.flowchart.decision;whiteSpace=wrap;" vertex="1" parent="WIyWlLk6GJQsqaUBKTNV-1">
          <mxGeometry x="210" y="-1010" width="131.25" height="70" as="geometry" />
        </mxCell>
        <mxCell id="px5DFVO-k1kZFDJR76U2-22" value="是" style="text;html=1;strokeColor=none;fillColor=none;align=center;verticalAlign=middle;whiteSpace=wrap;rounded=0;" vertex="1" parent="WIyWlLk6GJQsqaUBKTNV-1">
          <mxGeometry x="380" y="-1010" width="40" height="20" as="geometry" />
        </mxCell>
        <mxCell id="px5DFVO-k1kZFDJR76U2-25" value="通过传入的options 初始化vue&lt;br&gt;this._init(options)" style="rounded=1;whiteSpace=wrap;html=1;absoluteArcSize=1;arcSize=14;strokeWidth=1;" vertex="1" parent="WIyWlLk6GJQsqaUBKTNV-1">
          <mxGeometry x="190" y="-850" width="180" height="60" as="geometry" />
        </mxCell>
        <mxCell id="px5DFVO-k1kZFDJR76U2-27" style="edgeStyle=orthogonalEdgeStyle;rounded=0;orthogonalLoop=1;jettySize=auto;html=1;exitX=0.5;exitY=1;exitDx=0;exitDy=0;entryX=1;entryY=0.5;entryDx=0;entryDy=0;endArrow=block;endFill=0;" edge="1" parent="WIyWlLk6GJQsqaUBKTNV-1" source="px5DFVO-k1kZFDJR76U2-26" target="px5DFVO-k1kZFDJR76U2-25">
          <mxGeometry relative="1" as="geometry" />
        </mxCell>
        <mxCell id="px5DFVO-k1kZFDJR76U2-26" value="warn提示 Vue函数是构造函数且&lt;br&gt;应该通过 new 关键字创建" style="rounded=1;whiteSpace=wrap;html=1;absoluteArcSize=1;arcSize=14;strokeWidth=1;" vertex="1" parent="WIyWlLk6GJQsqaUBKTNV-1">
          <mxGeometry x="450" y="-1000" width="210" height="60" as="geometry" />
        </mxCell>
        <mxCell id="px5DFVO-k1kZFDJR76U2-28" value="否" style="text;html=1;strokeColor=none;fillColor=none;align=center;verticalAlign=middle;whiteSpace=wrap;rounded=0;" vertex="1" parent="WIyWlLk6GJQsqaUBKTNV-1">
          <mxGeometry x="230" y="-920" width="40" height="20" as="geometry" />
        </mxCell>
      </root>
    </mxGraphModel>
  </diagram>
</mxfile>
